# AST/ASF file generated using VICON BodyLanguage
# -----------------------------------------------
:version 1.10
:name VICON
:units
  mass 1.0
  length 0.45
  angle deg
:documentation
   .ast/.asf automatically generated from VICON data using
   VICON BodyBuilder and BodyLanguage model FoxedUp or BRILLIANT.MOD
:root
   order TX TY TZ RX RY RZ
   axis XYZ
   position 0 0 0  
   orientation 0 0 0 
:bonedata
  begin
     id 1 
     name lhipjoint
     direction 0.567149 -0.783011 0.255413 
     length 2.28399 
     axis 0 0 0  XYZ
  end
  begin
     id 2 
     name lfemur
     direction 0.34202 -0.939693 0  
     length 7.34031  
     axis 0 0 20  XYZ
    dof rx ry rz
    limits (-160.0 20.0)
           (-70.0 70.0)
           (-60.0 70.0)
  end
  begin
     id 3 
     name ltibia
     direction 0.34202 -0.939693 0   
     length 6.9833   
     axis 0 0 20   XYZ
    dof rx
    limits (-10.0 170.0)
  end
  begin
     id 4 
     name lfoot
     direction 0.136498 -0.375025 0.91691   
     length 2.33665   
     axis -90 7.62852e-016 20   XYZ
    dof rx rz
    limits (-45.0 90.0)
           (-70.0 20.0)
  end
  begin
     id 5 
     name ltoes
     direction 1.5367e-011 -4.21617e-011 1   
     length 1.15039   
     axis -90 7.62852e-016 20   XYZ
    dof rx
    limits (-90.0 20.0)
  end
  begin
     id 6 
     name rhipjoint
     direction -0.602854 -0.758518 0.247423   
     length 2.35775  
     axis 0 0 0  XYZ 
  end
  begin
     id 7 
     name rfemur
     direction -0.34202 -0.939693 0   
     length 7.43932   
     axis 0 0 -20   XYZ
    dof rx ry rz
    limits (-160.0 20.0)
           (-70.0 70.0)
           (-70.0 60.0)
  end
  begin
     id 8 
     name rtibia
     direction -0.34202 -0.939693 0   
     length 7.11893   
     axis 0 0 -20   XYZ
    dof rx
    limits (-10.0 170.0)
 end
 begin
     id 9 
     name rfoot
     direction -0.131771 -0.362037 0.922803   
     length 2.53019  
     axis -90 -7.62852e-016 -20   XYZ
    dof rx rz
    limits (-45.0 90.0)
           (-20.0 70.0)
  end
  begin
     id 10 
     name rtoes
     direction -1.53733e-011 -4.21932e-011 1   
     length 1.24596   
     axis -90 -7.62852e-016 -20   XYZ
    dof rx
    limits (-90.0 20.0)
  end
  begin
     id 11 
     name lowerback
     direction 0.0235427 0.999023 -0.0374125   
     length 2.21768   
     axis 0 0 0   XYZ
    dof rx ry rz
    limits (-20.0 45.0)
           (-30.0 30.0)
           (-30.0 30.0)
  end
  begin
     id 12 
     name upperback
     direction 0.0302156 0.996818 -0.073759   
     length 2.20352   
     axis 0 0 0   XYZ
    dof rx ry rz
    limits (-20.0 45.0)
           (-30.0 30.0)
           (-30.0 30.0)
  end
  begin
     id 13 
     name thorax
     direction 0.0187169 0.998235 -0.0563532   
     length 2.22103   
     axis 0 0 0   XYZ
    dof rx ry rz
    limits (-20.0 45.0)
           (-30.0 30.0)
           (-30.0 30.0)
  end
  begin
     id 14 
     name lowerneck
     direction -0.119528 0.987423 0.103481   
     length 1.72948   
     axis 0 0 0   XYZ
    dof rx ry rz
    limits (-20.0 45.0)
           (-30.0 30.0)
           (-30.0 30.0)
  end
  begin
     id 15 
     name upperneck
     direction 0.248049 0.963095 -0.104496   
     length 1.74979   
     axis 0 0 0   XYZ
    dof rx ry rz
    limits (-20.0 45.0)
           (-30.0 30.0)
           (-30.0 30.0)
  end
  begin
     id 16
     name head
     direction 0.0903589 0.994284 -0.056876  
     length 1.78268  
     axis 0 0 0   XYZ
    dof rx ry rz
    limits (-20.0 45.0)
           (-30.0 30.0)
           (-30.0 30.0)
  end
  begin
     id 17 
     name lclavicle
     direction 0.946008 0.242039 -0.215608  
     length 3.80783  
     axis 0 0 0   XYZ
    dof ry rz
    limits (-20.0 10.0)
           (0.0 20.0)
  end
  begin
     id 18 
     name lhumerus
     direction 1 -4.48991e-011 -2.25695e-027   
     length 4.83125   
     axis 180 -30 -90   XYZ
    dof rx ry rz
    limits (-60.0 90.0)
           (-90.0 90.0)
           (-90.0 90.0)
  end
  begin
     id 19
     name lradius
     direction 0.999991 0.00366712 -0.00211721   
     length 3.00391   
     axis 180 -30 -90   XYZ
    dof rx
    limits (-10.0 170.0)
  end
  begin
     id 20
     name lwrist
     direction 0.999991 0.00393016 -0.00141978   
     length 1.50195   
     axis -1.00488e-014 90 90   XYZ
    dof ry
    limits (-180.0 0.0)
 end
  begin
     id 21 
     name lhand
     direction 1 -4.49123e-011 2.72098e-026   
     length 1.2717   
     axis -1.73687e-014 90 90   XYZ
    dof rx rz
    limits (-90.0 90.0)
           (-45.0 45.0)
  end
  begin
     id 22 
     name lfingers
     direction 1 -4.48678e-011 5.4479e-026   
     length 1.02528   
     axis -3.47372e-014 90 90   XYZ
    dof rx
    limits (0.0 90.0)
  end
  begin
     id 23
     name lthumb
     direction 0.707107 -6.34851e-011 0.707107   
     length 1.4721   
     axis -90 45 -1.62303e-014   XYZ
    dof rx rz
    limits (-45.0 45.0)
           (-45.0 45.0)
  end
  begin
     id 24 
     name rclavicle
     direction -0.981723 0.189447 -0.0181673   
     length 3.74989  
     axis 0 0 0   XYZ 
    dof ry rz
    limits (-10.0 20.0)
           (-20.0 0.0)
  end
  begin
     id 25 
     name rhumerus
     direction -1 -4.48985e-011 2.38206e-027  
     length 4.61118   
     axis 180 30 90   XYZ
    dof rx ry rz
    limits (-90.0 60.0)
           (-90.0 90.0)
           (-90.0 90.0)
  end
  begin
     id 26 
     name rradius
     direction -1 -4.48977e-011 7.41019e-027   
     length 2.91491   
     axis 180 30 90   XYZ
    dof rx
    limits (-10.0 170.0)
  end
  begin
     id 27 
     name rwrist
     direction -1 -4.48549e-011 1.3624e-026   
     length 1.45745   
     axis -1.00488e-014 -90 -90   XYZ
    dof ry
    limits (-180.0 0.0)
  end
  begin
     id 28
     name rhand
     direction -1 -4.49107e-011 2.72109e-026   
     length 1.30769   
     axis -1.73687e-014 -90 -90   XYZ
    dof rx rz
    limits (-90.0 90.0)
           (-45.0 45.0)
  end
  begin
     id 29
     name rfingers
     direction -1 -4.48919e-011 5.44468e-026   
     length 1.05429   
     axis -3.47372e-014 -90 -90   XYZ
    dof rx
    limits (0.0 90.0)
  end
  begin
     id 30
     name rthumb
     direction -0.707107 -6.35315e-011 0.707107   
     length 1.51376   
     axis -90 -45 1.62303e-014   XYZ
    dof rx rz
    limits (-45.0 45.0)
           (-45.0 45.0)
  end
:hierarchy
  begin
    root lhipjoint rhipjoint lowerback
    lhipjoint lfemur
    lfemur ltibia
    ltibia lfoot
    lfoot ltoes
    rhipjoint rfemur
    rfemur rtibia
    rtibia rfoot
    rfoot rtoes
    lowerback upperback
    upperback thorax
    thorax lowerneck lclavicle rclavicle
    lowerneck upperneck
    upperneck head
    lclavicle lhumerus
    lhumerus lradius
    lradius lwrist
    lwrist lhand lthumb
    lhand lfingers
    rclavicle rhumerus
    rhumerus rradius
    rradius rwrist
    rwrist rhand rthumb
    rhand rfingers
  end

#!OML:ASF X:\für Bonn\!DataBase\2005_08_11_Bastian_Final\c3d\Bastian.ASF
:FULLY-SPECIFIED
:DEGREES
1
root 2.05586 14.5686 14.4554 718.148 4.7523 -6.50053
lowerback 14.7754 -1.5056 3.3332
upperback 4.1844 -1.39133 1.95649
thorax -3.8777 -0.697483 0.418706
lowerneck -13.4505 -3.81766 -0.534744
upperneck -9.65929 -4.69865 7.93885
head -0.587798 -2.31746 2.45396
rclavicle 1.25234e-014 -1.43125e-014
rhumerus -44.0835 2.74267 -90.2636
rradius 36.097
rwrist -3.05371
rhand -24.7548 15.8873
rfingers 7.12502
rthumb 1.74837 -14.0853
lclavicle 1.25234e-014 -1.43125e-014
lhumerus -32.9734 22.5343 73.7008
lradius 37.2964
lwrist 192.423
lhand -25.6206 18.4065
lfingers 7.12502
lthumb 0.912215 48.3843
rfemur -31.207 -1.58525 27.7916
rtibia 79.259
rfoot -35.0351 0.333511
rtoes 9.60434
lfemur -28.6115 1.89206 -11.0483
ltibia 81.1995
lfoot -39.3228 -10.7634
ltoes -8.33421
2
root 2.03468 14.5298 14.6284 718.494 4.82384 -6.48204
lowerback 14.5161 -1.48919 3.36873
upperback 4.06409 -1.37392 1.95678
thorax -3.865 -0.689906 0.391406
lowerneck -13.4864 -3.85358 -0.7637
upperneck -9.89178 -4.70053 8.0033
head -0.649215 -2.31558 2.51962
rclavicle -1.43125e-014 -1.23246e-014
rhumerus -43.1308 3.78935 -90.4891
rradius 37.8055
rwrist -2.70828
rhand -25.0565 16.8778
rfingers 7.12502
rthumb 1.45697 -13.097
lclavicle -1.43125e-014 -1.23246e-014
lhumerus -30.6353 20.7554 75.5931
lradius 39.3693
lwrist 193.686
lhand -26.6844 19.5646
lfingers 7.12502
lthumb -0.115262 49.5443
rfemur -31.0446 -1.44607 27.9906
rtibia 79.7112
rfoot -35.378 0.0586988
rtoes 11.0023
lfemur -28.4509 1.97034 -10.8773
ltibia 81.6675
lfoot -39.9112 -10.7312
ltoes -10.0779
3
root 2.01167 14.5241 14.8057 718.878 4.85138 -6.37295
lowerback 14.112 -1.47583 3.3568
upperback 3.92901 -1.37875 1.86908
thorax -3.79073 -0.692764 0.299129
lowerneck -13.4585 -3.87281 -0.938658
upperneck -10.0772 -4.6883 8.09734
head -0.707015 -2.30828 2.58676
rclavicle -2.57923e-014 2.18663e-015
rhumerus -42.0558 5.03331 -90.7928
rradius 39.7859
rwrist -2.45589
rhand -25.1063 17.7575
rfingers 7.12502
rthumb 1.40891 -12.2176
lclavicle -2.57923e-014 2.18663e-015
lhumerus -28.4087 18.7273 77.1693
lradius 41.96
lwrist 195.466
lhand -27.6911 19.0333
lfingers 7.12502
lthumb -1.0876 49.0102
rfemur -30.7112 -1.28139 28.0944
rtibia 79.7862
rfoot -35.417 -0.230159
rtoes 11.8752
lfemur -28.1293 2.05799 -10.7986
ltibia 81.7267
lfoot -40.2346 -10.6928
ltoes -11.6956
4
root 1.99021 14.5517 14.9897 719.204 4.85679 -6.18195
lowerback 13.639 -1.47146 3.33878
upperback 3.80181 -1.40468 1.67248
thorax -3.67315 -0.705545 0.09823
lowerneck -13.4121 -3.87266 -0.928859
upperneck -10.1321 -4.68305 8.14687
head -0.731467 -2.30785 2.60367
rclavicle -2.9122e-014 -1.72943e-014
rhumerus -40.8397 6.5628 -91.2692
rradius 41.8952
rwrist -2.28
rhand -25.6508 19.0066
rfingers 7.12502
rthumb 0.883061 -10.9714
lclavicle -2.9122e-014 -1.72943e-014
lhumerus -26.4383 16.4273 78.4044
lradius 44.5087
lwrist 197.566
lhand -28.8039 19.9034
lfingers 7.12502
lthumb -2.16236 49.8722
rfemur -30.0769 -1.14851 28.0758
rtibia 79.4699
rfoot -35.2356 -0.356995
rtoes 12.5586
lfemur -27.5399 2.11846 -10.8211
ltibia 81.3833
lfoot -40.2774 -10.5423
ltoes -13.3642
5
root 1.96752 14.609 15.1844 719.372 4.77141 -5.92992
lowerback 13.1655 -1.45682 3.18547
upperback 3.68618 -1.43388 1.49248
thorax -3.5392 -0.719348 -0.00859409
lowerneck -13.3107 -3.84768 -0.933979
upperneck -9.98471 -4.65998 8.08083
head -0.702597 -2.29454 2.58246
rclavicle 8.99501e-015 -8.74653e-015
rhumerus -39.719 8.34544 -91.5935
rradius 44.7365
rwrist -2.1028
rhand -25.9436 19.6479
rfingers 7.12502
rthumb 0.600176 -10.331
lclavicle 8.99501e-015 -8.74653e-015
lhumerus -24.747 14.247 79.2978
lradius 47.2973
lwrist 199.617
lhand -30.0762 20.8571
lfingers 7.12502
lthumb -3.39105 50.8099
rfemur -29.0085 -1.01912 27.966
rtibia 78.7582
rfoot -34.9037 -0.432557
rtoes 12.4619
lfemur -26.5105 2.23481 -10.8808
ltibia 80.6389
lfoot -40.0701 -10.5092
ltoes -14.8694
6
root 1.94322 14.6913 15.3954 719.452 4.60508 -5.58176
lowerback 12.5245 -1.42147 2.87454
upperback 3.56247 -1.46159 1.29147
thorax -3.31862 -0.731438 -0.052656
lowerneck -13.1978 -3.80794 -0.91207
upperneck -9.49322 -4.64446 7.94258
head -0.566291 -2.27804 2.52631
rclavicle -1.35174e-014 1.07344e-014
rhumerus -39.0185 10.1149 -91.7714
rradius 48.0364
rwrist -1.61477
rhand -25.8791 19.5494
rfingers 7.12502
rthumb 0.662545 -10.4293
lclavicle -1.35174e-014 1.07344e-014
lhumerus -23.2877 12.2703 79.8675
lradius 50.4304
lwrist 201
lhand -31.1211 21.0755
lfingers 7.12502
lthumb -4.40012 51.0098
rfemur -27.6285 -0.910589 27.7336
rtibia 77.6996
rfoot -34.4922 -0.454055
rtoes 11.698
lfemur -25.0577 2.4199 -11.0186
ltibia 79.4681
lfoot -39.6025 -10.5248
ltoes -16.1861
7
root 1.91805 14.7934 15.6257 719.553 4.4122 -5.19965
lowerback 11.5556 -1.36811 2.49796
upperback 3.3365 -1.47758 1.10118
thorax -3.02193 -0.738201 -0.0562087
lowerneck -12.8336 -3.7871 -1.06891
upperneck -8.6412 -4.6478 7.92766
head -0.344887 -2.26185 2.54206
rclavicle 2.38542e-015 0
rhumerus -38.741 11.8455 -91.7685
rradius 51.4878
rwrist -0.558374
rhand -25.3492 18.652
rfingers 7.12502
rthumb 1.17431 -11.3245
lclavicle 2.38542e-015 0
lhumerus -22.2894 10.2011 80.1911
lradius 53.6212
lwrist 202.123
lhand -31.7351 21.7578
lfingers 7.12502
lthumb -4.99292 51.6789
rfemur -26.099 -0.849267 27.4423
rtibia 76.3276
rfoot -33.9614 -0.333311
rtoes 10.6161
lfemur -23.4082 2.61656 -11.168
ltibia 77.9222
lfoot -38.8158 -10.6383
ltoes -17.4627
8
root 1.8907 14.9284 15.8819 719.52 4.22607 -4.82251
lowerback 10.4573 -1.33114 2.03301
upperback 3.00618 -1.51553 0.973189
thorax -2.75615 -0.756927 0.0562259
lowerneck -12.0306 -3.74565 -1.55364
upperneck -7.54409 -4.59447 8.13687
head -0.103837 -2.21208 2.70013
rclavicle 1.72943e-014 2.10712e-014
rhumerus -38.8638 13.6355 -91.647
rradius 54.9818
rwrist 0.623421
rhand -24.6917 17.6678
rfingers 7.12502
rthumb 1.80932 -12.3042
lclavicle 1.72943e-014 2.10712e-014
lhumerus -21.8901 8.17226 80.3216
lradius 57.0043
lwrist 203.13
lhand -32.0462 22.1979
lfingers 7.12502
lthumb -5.2933 52.1117
rfemur -24.1528 -0.851538 27.1382
rtibia 74.5499
rfoot -33.4543 -0.0648961
rtoes 9.27265
lfemur -21.3083 2.76693 -11.2852
ltibia 75.9369
lfoot -37.4013 -10.8017
ltoes -18.9041
9
root 1.86468 15.1097 16.1622 719.668 4.09875 -4.34678
lowerback 8.94671 -1.31709 1.49387
upperback 2.56189 -1.58954 0.780402
thorax -2.37663 -0.793597 0.138522
lowerneck -11.0371 -3.68028 -1.87837
upperneck -6.22115 -4.55237 8.20526
head 0.167261 -2.17446 2.78438
rclavicle -1.04362e-015 9.54166e-015
rhumerus -39.324 15.2483 -91.5432
rradius 58.6329
rwrist 1.70938
rhand -24.8051 17.8572
rfingers 7.12502
rthumb 1.69984 -12.1158
lclavicle -1.04362e-015 9.54166e-015
lhumerus -21.7832 6.19196 80.1973
lradius 60.6132
lwrist 204.109
lhand -32.3625 23.6275
lfingers 7.12502
lthumb -5.59877 53.5336
rfemur -22.1439 -0.936308 26.6758
rtibia 72.3335
rfoot -32.8963 0.367206
rtoes 7.69781
lfemur -19.2216 2.81778 -11.548
ltibia 73.5765
lfoot -35.5926 -10.8716
ltoes -20.5032
10
root 1.83855 15.3249 16.4622 719.946 4.03351 -3.96477
lowerback 7.01397 -1.35175 1.01077
upperback 2.12034 -1.71139 0.6392
thorax -1.75346 -0.854078 0.233936
lowerneck -10.0935 -3.58042 -2.12978
upperneck -4.767 -4.48704 8.09163
head 0.476649 -2.12714 2.79578
rclavicle 3.77691e-015 1.27222e-014
rhumerus -39.9734 17.0102 -91.4674
rradius 62.0589
rwrist 2.06661
rhand -25.4285 19.0394
rfingers 7.12502
rthumb 1.0977 -10.9375
lclavicle 3.77691e-015 1.27222e-014
lhumerus -21.7778 4.48435 79.8811
lradius 64.4368
lwrist 205.211
lhand -32.6509 24.0997
lfingers 7.12502
lthumb -5.8772 53.9982
rfemur -20.0743 -1.07479 26.3002
rtibia 69.6588
rfoot -32.2013 0.876839
rtoes 5.55643
lfemur -17.2019 2.82553 -11.6951
ltibia 70.9165
lfoot -33.4473 -10.8727
ltoes -22.6717
11
root 1.81196 15.5631 16.7777 720.044 4.07744 -3.58866
lowerback 5.08236 -1.43225 0.513974
upperback 1.74055 -1.87353 0.485916
thorax -1.05953 -0.935496 0.320676
lowerneck -9.09067 -3.45687 -2.32136
upperneck -3.33988 -4.39632 8.02664
head 0.763081 -2.07187 2.81744
rclavicle -8.69683e-015 -3.57812e-015
rhumerus -40.5885 18.4685 -91.2797
rradius 65.3603
rwrist 3.0701
rhand -25.7325 19.699
rfingers 7.12502
rthumb 0.804067 -10.2792
lclavicle -8.69683e-015 -3.57812e-015
lhumerus -21.9118 3.04838 79.3932
lradius 68.5476
lwrist 206.352
lhand -33.5784 23.3275
lfingers 7.12502
lthumb -6.7726 53.1992
rfemur -17.5733 -1.28704 25.9003
rtibia 66.6294
rfoot -31.3598 1.5035
rtoes 2.60226
lfemur -14.9284 2.60275 -11.8303
ltibia 68.0195
lfoot -30.7313 -11.0229
ltoes -24.809
